<mxfile host="app.diagrams.net" modified="2023-08-14T11:00:00.386Z" agent="Mozilla/5.0 (Windows NT 10.0; Win64; x64) AppleWebKit/537.36 (KHTML, like Gecko) Chrome/115.0.0.0 Safari/537.36" version="21.6.8" etag="M27o7Y6H8HYhXUoEh69b" type="github">
  <diagram name="Page-1" id="4gJuqsbErgo4mxM9Xxie">
    <mxGraphModel>
      <root>
        <mxCell id="0" />
        <mxCell id="1" parent="0" />
      </root>
    </mxGraphModel>
  </diagram>
</mxfile>
